<?xml version="1.0" encoding="UTF-8" standalone="no"?>
<svg
   xmlns:dc="http://purl.org/dc/elements/1.1/"
   xmlns:cc="http://creativecommons.org/ns#"
   xmlns:rdf="http://www.w3.org/1999/02/22-rdf-syntax-ns#"
   xmlns:svg="http://www.w3.org/2000/svg"
   xmlns="http://www.w3.org/2000/svg"
   xmlns:sodipodi="http://sodipodi.sourceforge.net/DTD/sodipodi-0.dtd"
   xmlns:inkscape="http://www.inkscape.org/namespaces/inkscape"
   width="7680px"
   height="4320px"
   viewBox="0 0 7680 4320"
   version="1.1"
   id="SVGRoot"
   sodipodi:docname="background.svg"
   inkscape:version="1.0.2 (e86c870879, 2021-01-15, custom)">
  <defs
     id="defs10">
    <filter
       inkscape:collect="always"
       style="color-interpolation-filters:sRGB"
       id="filter956"
       x="-0.00035376775"
       width="1.0007075"
       y="-0.002262473"
       height="1.0045249">
      <feGaussianBlur
         inkscape:collect="always"
         stdDeviation="1.2217011"
         id="feGaussianBlur958" />
    </filter>
  </defs>
  <sodipodi:namedview
     id="base"
     pagecolor="#ffffff"
     bordercolor="#666666"
     borderopacity="1.0"
     inkscape:pageopacity="0.0"
     inkscape:pageshadow="2"
     inkscape:zoom="0.12374369"
     inkscape:cx="2087.336"
     inkscape:cy="1086.8629"
     inkscape:document-units="px"
     inkscape:current-layer="layer1"
     inkscape:document-rotation="0"
     showgrid="false"
     inkscape:window-width="1278"
     inkscape:window-height="1368"
     inkscape:window-x="-7"
     inkscape:window-y="0"
     inkscape:window-maximized="0" />
  <metadata
     id="metadata13">
    <rdf:RDF>
      <cc:Work
         rdf:about="">
        <dc:format>image/svg+xml</dc:format>
        <dc:type
           rdf:resource="http://purl.org/dc/dcmitype/StillImage" />
      </cc:Work>
    </rdf:RDF>
  </metadata>
  <g
     inkscape:label="Layer 1"
     inkscape:groupmode="layer"
     id="layer1">
    <rect
       style="fill:#262626;stroke:#00ffcc;fill-opacity:1"
       id="rect23"
       width="7774.1343"
       height="4396.1836"
       x="-64.649765"
       y="-48.48732" />
    <path
       style="fill:#03dac5;fill-opacity:1;stroke:#00ffcc;filter:url(#filter956)"
       id="path850"
       d="m -387.51927,3254.3073 c 34.13327,56.4826 84.08536,102.9708 137.11227,141.6309 17.92196,13.0663 36.88447,24.6421 55.3267,36.9632 123.269723,77.6498 263.019231,119.6058 406.0141,142.4758 33.46326,5.352 67.21269,8.7286 100.81904,13.0929 35.02682,2.0699 69.99447,5.842 105.08047,6.2096 157.05261,1.6458 314.82707,-25.051 466.9361,-62.1137 39.68973,-9.6707 78.90542,-21.1926 118.35809,-31.7889 229.9611,-65.7546 447.5545,-166.0299 664.5591,-265.0488 171.0923,-78.0555 342.1776,-158.7295 522.2275,-214.4879 33.2505,-10.2971 67.0494,-18.7323 100.5741,-28.0984 125.4882,-31.4933 254.2127,-48.8945 383.6353,-38.3916 76.4394,6.2032 100.5628,13.9274 175.2361,29.9633 111.8015,29.1762 217.8591,76.998 314.2736,140.6461 62.0171,40.9406 83.6187,61.325 141.5176,108.9429 101.0322,86.9363 195.2788,181.2751 292.9187,271.9117 80.3908,74.6246 74.0595,68.0652 157.1432,141.1825 111.0287,96.4753 230.6398,182.5476 360.9116,251.1951 83.9414,44.2334 110.6539,52.9915 197.9725,89.2396 192.3544,73.5663 396.0662,104.7316 599.2521,130.3302 158.0529,17.7358 317.107,23.0446 475.7547,33.043 182.5864,9.789 365.0842,20.8719 547.765,28.7787 144.9233,4.4028 290.0223,10.4849 435.0245,5.3519 97.1092,-3.4377 112.4631,-6.3923 208.057,-15.6984 104.3799,-13.024 208.6454,-28.6798 310.835,-54.0228 48.1618,-11.9441 58.6043,-15.8755 104.6158,-30.1583 91.7245,-31.4297 181.0271,-69.1774 269.473,-108.7594 87.8244,-41.0602 176.1565,-81.1422 262.2866,-125.6861 103.3941,-56.274 204.3152,-116.933 306.2905,-175.6987 23.1612,-13.5216 45.4727,-28.3927 68.1869,-42.6338 0,0 -108.9721,42.3574 -108.9721,42.3574 v 0 c -21.7068,13.9617 -43.2657,28.1731 -65.5954,41.1368 -27.98,16.3377 -139.6507,83.2375 -2.2529,2.2167 11.7356,-6.9203 -23.7743,13.314 -35.6002,20.0787 -71.1631,40.707 -0.6086,1.2465 -74.4704,42.2248 -86.0911,45.4507 -174.8296,85.5683 -262.8879,127.0209 -88.3332,39.7205 -177.6354,77.2112 -268.8567,109.8643 -137.3096,45.0279 -278.6956,74.6892 -422.2011,92.0623 -94.9083,9.9729 -112.2149,13.3317 -208.5975,17.1256 -144.5901,5.6914 -289.3304,-0.4904 -433.8295,-5.4441 -181.063,-8.3697 -361.8189,-21.504 -542.7568,-32.1389 -159.5374,-10.1875 -319.5169,-13.7624 -478.5993,-30.2791 -203.8498,-23.8116 -406.9878,-53.3016 -600.1208,-126.4152 -85.8155,-35.1649 -115.2023,-44.9293 -197.7441,-87.9255 -129.9712,-67.7022 -248.826,-153.6875 -359.1484,-249.8485 -76.721,-68.0761 -81.917,-71.8058 -156.3362,-141.3006 -97.377,-90.9337 -191.3836,-185.4848 -291.3584,-273.6205 -58.9892,-49.7165 -77.7355,-68.4007 -141.3223,-110.8773 -97.0345,-64.8202 -204.0556,-112.9022 -316.7212,-143.1514 -76.7056,-16.9321 -98.22,-24.3362 -176.8921,-31.0125 -130.6601,-11.088 -260.6352,5.6725 -387.4451,37.3116 -33.8362,9.3772 -67.9452,17.8202 -101.5084,28.1315 -180.8424,55.5584 -352.6445,136.3628 -524.3038,214.8372 -217.0629,99.1887 -434.4947,200.1255 -664.2834,266.8615 -39.3117,10.6797 -78.3829,22.2871 -117.93485,32.0391 -184.92495,45.5957 -376.11122,73.9878 -566.702,56.2614 -33.23572,-4.3797 -66.60936,-7.8163 -99.70714,-13.139 -140.74838,-22.6347 -278.213235,-64.0025 -398.52479,-142.3287 -17.80481,-12.3382 -36.15622,-23.9227 -53.41442,-37.0146 -50.20481,-38.0847 -98.67887,-84.4436 -126.12071,-141.968 0,0 -103.94926,58.5635 -103.94926,58.5635 z" />
  </g>
</svg>
